<?xml version="1.0" encoding="UTF-8" standalone="no"?>
<!-- Created with Inkscape (http://www.inkscape.org/) -->

<svg
   width="13.567mm"
   height="13.567mm"
   viewBox="0 0 13.567 13.567"
   version="1.1"
   id="svg5"
   sodipodi:docname="add_vertex.svg"
   inkscape:version="1.2.2 (b0a8486541, 2022-12-01)"
   xmlns:inkscape="http://www.inkscape.org/namespaces/inkscape"
   xmlns:sodipodi="http://sodipodi.sourceforge.net/DTD/sodipodi-0.dtd"
   xmlns="http://www.w3.org/2000/svg"
   xmlns:svg="http://www.w3.org/2000/svg">
  <sodipodi:namedview
     id="namedview7"
     pagecolor="#ffffff"
     bordercolor="#000000"
     borderopacity="0.25"
     inkscape:showpageshadow="2"
     inkscape:pageopacity="0.0"
     inkscape:pagecheckerboard="0"
     inkscape:deskcolor="#d1d1d1"
     inkscape:document-units="mm"
     showgrid="false"
     inkscape:zoom="11.103504"
     inkscape:cx="23.686217"
     inkscape:cy="31.071274"
     inkscape:window-width="1920"
     inkscape:window-height="1011"
     inkscape:window-x="0"
     inkscape:window-y="32"
     inkscape:window-maximized="1"
     inkscape:current-layer="layer1" />
  <defs
     id="defs2">
    <filter
       inkscape:collect="always"
       style="color-interpolation-filters:sRGB"
       id="filter932"
       x="-0.15282502"
       y="-1.4485092"
       width="1.30565"
       height="3.8970183">
      <feGaussianBlur
         inkscape:collect="always"
         stdDeviation="0.28834324"
         id="feGaussianBlur934" />
    </filter>
  </defs>
  <g
     inkscape:label="Layer 1"
     inkscape:groupmode="layer"
     id="layer1"
     transform="translate(-68.466829,33.387752)">
    <path
       id="path376"
       style="fill:#4d4d4d;stroke-width:0.221279;stroke-linecap:round;stroke-linejoin:round;stop-color:#000000;filter:url(#filter932)"
       d="m 75.675435,-20.789005 a 2.2641056,0.2388746 0 0 1 -2.264105,0.238874 2.2641056,0.2388746 0 0 1 -2.264105,-0.238874 2.2641056,0.2388746 0 0 1 2.264105,-0.238875 2.2641056,0.2388746 0 0 1 2.264105,0.238875 z" />
    <g
       aria-label="+"
       transform="matrix(0.27173487,0,0,0.26850633,65.211151,-1.2337587)"
       id="text450"
       style="font-size:42.6667px;line-height:1.25;font-family:'Quicksand Medium';-inkscape-font-specification:'Quicksand Medium, ';baseline-shift:baseline;vector-effect:none;fill:#f9f9f9;stroke-width:0.999999;stop-color:#000000">
      <path
         d="m 56.059673,-110.66333 q 0.853334,0 1.365335,0.55466 0.554667,0.51201 0.554667,1.36534 0,0.81067 -0.554667,1.32267 -0.512001,0.512 -1.365335,0.512 h -6.570671 v 6.528 q 0,0.93867 -0.597334,1.57867 -0.597334,0.597334 -1.578668,0.597334 -0.938667,0 -1.578668,-0.597334 -0.597333,-0.64 -0.597333,-1.57867 v -6.528 h -6.528005 q -0.810667,0 -1.365335,-0.55467 -0.554667,-0.55467 -0.554667,-1.36533 0,-0.81067 0.512001,-1.32267 0.554667,-0.512 1.408001,-0.512 h 6.528005 v -6.95467 q 0,-0.93867 0.597333,-1.53601 0.640001,-0.59733 1.578668,-0.59733 0.981334,0 1.578668,0.59733 0.597334,0.59734 0.597334,1.53601 v 6.95467 z"
         id="path352"
         style="fill:#f9f9f9" />
    </g>
    <path
       id="path234"
       style="fill:#f9f9f9;stroke-width:1.16234;stroke-linecap:round;stroke-linejoin:round;stop-color:#000000"
       d="m 77.297497,-25.260244 a 3.8861675,3.8399953 0 0 1 -3.886167,3.839995 3.8861675,3.8399953 0 0 1 -3.886167,-3.839995 3.8861675,3.8399953 0 0 1 3.886167,-3.839996 3.8861675,3.8399953 0 0 1 3.886167,3.839996 z" />
  </g>
</svg>
